<mxfile host="Electron" agent="Mozilla/5.0 (X11; Linux x86_64) AppleWebKit/537.36 (KHTML, like Gecko) draw.io/28.1.2 Chrome/138.0.7204.243 Electron/37.4.0 Safari/537.36" version="28.1.2">
  <diagram name="Page-1" id="pwfQz-sSOffPF5Ie87n6">
    <mxGraphModel dx="1377" dy="814" grid="1" gridSize="10" guides="1" tooltips="1" connect="1" arrows="1" fold="1" page="1" pageScale="1" pageWidth="827" pageHeight="1169" math="0" shadow="0">
      <root>
        <mxCell id="0" />
        <mxCell id="1" parent="0" />
        <mxCell id="_sGpEpvZL02431Neq0mV-9" style="edgeStyle=orthogonalEdgeStyle;rounded=0;orthogonalLoop=1;jettySize=auto;html=1;exitX=1;exitY=0.5;exitDx=0;exitDy=0;entryX=0;entryY=0.5;entryDx=0;entryDy=0;" parent="1" source="_sGpEpvZL02431Neq0mV-1" target="_sGpEpvZL02431Neq0mV-2" edge="1">
          <mxGeometry relative="1" as="geometry">
            <mxPoint x="210" y="50" as="targetPoint" />
            <Array as="points">
              <mxPoint x="170" y="470" />
              <mxPoint x="170" y="90" />
            </Array>
          </mxGeometry>
        </mxCell>
        <mxCell id="_sGpEpvZL02431Neq0mV-16" value="8444" style="edgeLabel;html=1;align=center;verticalAlign=middle;resizable=0;points=[];fontSize=9;" parent="_sGpEpvZL02431Neq0mV-9" vertex="1" connectable="0">
          <mxGeometry x="0.6952" y="-2" relative="1" as="geometry">
            <mxPoint x="48" y="-13" as="offset" />
          </mxGeometry>
        </mxCell>
        <mxCell id="_sGpEpvZL02431Neq0mV-10" style="edgeStyle=orthogonalEdgeStyle;rounded=0;orthogonalLoop=1;jettySize=auto;html=1;entryX=0;entryY=0.5;entryDx=0;entryDy=0;exitX=1;exitY=0.5;exitDx=0;exitDy=0;" parent="1" source="_sGpEpvZL02431Neq0mV-1" target="_sGpEpvZL02431Neq0mV-3" edge="1">
          <mxGeometry relative="1" as="geometry">
            <Array as="points">
              <mxPoint x="170" y="470" />
              <mxPoint x="170" y="150" />
            </Array>
          </mxGeometry>
        </mxCell>
        <mxCell id="_sGpEpvZL02431Neq0mV-17" value="8447" style="edgeLabel;html=1;align=center;verticalAlign=middle;resizable=0;points=[];fontSize=9;" parent="_sGpEpvZL02431Neq0mV-10" vertex="1" connectable="0">
          <mxGeometry x="0.6176" y="2" relative="1" as="geometry">
            <mxPoint x="52" y="-20" as="offset" />
          </mxGeometry>
        </mxCell>
        <mxCell id="_sGpEpvZL02431Neq0mV-11" style="edgeStyle=orthogonalEdgeStyle;rounded=0;orthogonalLoop=1;jettySize=auto;html=1;entryX=0;entryY=0.5;entryDx=0;entryDy=0;exitX=1;exitY=0.5;exitDx=0;exitDy=0;" parent="1" source="_sGpEpvZL02431Neq0mV-1" target="_sGpEpvZL02431Neq0mV-5" edge="1">
          <mxGeometry relative="1" as="geometry" />
        </mxCell>
        <mxCell id="_sGpEpvZL02431Neq0mV-18" value="8446" style="edgeLabel;html=1;align=center;verticalAlign=middle;resizable=0;points=[];fontSize=9;" parent="_sGpEpvZL02431Neq0mV-11" vertex="1" connectable="0">
          <mxGeometry x="0.5385" y="-1" relative="1" as="geometry">
            <mxPoint x="93" y="-11" as="offset" />
          </mxGeometry>
        </mxCell>
        <mxCell id="e6Xa3xUERke05eWlV9_L-16" value="8446" style="edgeLabel;html=1;align=center;verticalAlign=middle;resizable=0;points=[];fontSize=9;" parent="_sGpEpvZL02431Neq0mV-11" vertex="1" connectable="0">
          <mxGeometry x="0.14" relative="1" as="geometry">
            <mxPoint x="23" y="-10" as="offset" />
          </mxGeometry>
        </mxCell>
        <mxCell id="_sGpEpvZL02431Neq0mV-14" style="edgeStyle=orthogonalEdgeStyle;rounded=0;orthogonalLoop=1;jettySize=auto;html=1;entryX=0;entryY=0.5;entryDx=0;entryDy=0;" parent="1" target="_sGpEpvZL02431Neq0mV-7" edge="1">
          <mxGeometry relative="1" as="geometry">
            <mxPoint x="140" y="470" as="sourcePoint" />
            <Array as="points">
              <mxPoint x="170" y="470" />
              <mxPoint x="170" y="410" />
            </Array>
          </mxGeometry>
        </mxCell>
        <mxCell id="_sGpEpvZL02431Neq0mV-21" value="8449" style="edgeLabel;html=1;align=center;verticalAlign=middle;resizable=0;points=[];fontSize=9;" parent="_sGpEpvZL02431Neq0mV-14" vertex="1" connectable="0">
          <mxGeometry x="0.5824" y="-3" relative="1" as="geometry">
            <mxPoint x="14" y="-13" as="offset" />
          </mxGeometry>
        </mxCell>
        <mxCell id="_sGpEpvZL02431Neq0mV-15" style="edgeStyle=orthogonalEdgeStyle;rounded=0;orthogonalLoop=1;jettySize=auto;html=1;entryX=0;entryY=0.5;entryDx=0;entryDy=0;exitX=1;exitY=0.5;exitDx=0;exitDy=0;" parent="1" source="_sGpEpvZL02431Neq0mV-1" target="_sGpEpvZL02431Neq0mV-8" edge="1">
          <mxGeometry relative="1" as="geometry">
            <Array as="points">
              <mxPoint x="170" y="470" />
              <mxPoint x="170" y="860" />
            </Array>
          </mxGeometry>
        </mxCell>
        <mxCell id="_sGpEpvZL02431Neq0mV-19" value="8448" style="edgeLabel;html=1;align=center;verticalAlign=middle;resizable=0;points=[];fontSize=9;" parent="_sGpEpvZL02431Neq0mV-15" vertex="1" connectable="0">
          <mxGeometry x="0.6667" relative="1" as="geometry">
            <mxPoint x="40" y="-10" as="offset" />
          </mxGeometry>
        </mxCell>
        <mxCell id="cy9EhG2jdux1Q5BCdfHV-5" style="edgeStyle=orthogonalEdgeStyle;rounded=0;orthogonalLoop=1;jettySize=auto;html=1;entryX=0;entryY=0.5;entryDx=0;entryDy=0;" edge="1" parent="1" source="_sGpEpvZL02431Neq0mV-1" target="cy9EhG2jdux1Q5BCdfHV-1">
          <mxGeometry relative="1" as="geometry">
            <Array as="points">
              <mxPoint x="170" y="470" />
              <mxPoint x="170" y="740" />
            </Array>
          </mxGeometry>
        </mxCell>
        <mxCell id="cy9EhG2jdux1Q5BCdfHV-6" value="8453" style="edgeLabel;html=1;align=center;verticalAlign=middle;resizable=0;points=[];fontSize=9;" vertex="1" connectable="0" parent="cy9EhG2jdux1Q5BCdfHV-5">
          <mxGeometry x="0.7324" y="2" relative="1" as="geometry">
            <mxPoint x="30" y="-8" as="offset" />
          </mxGeometry>
        </mxCell>
        <mxCell id="_sGpEpvZL02431Neq0mV-1" value="Gateway" style="rounded=1;whiteSpace=wrap;html=1;fillColor=#FFF2CC;" parent="1" vertex="1">
          <mxGeometry x="40" y="450" width="100" height="40" as="geometry" />
        </mxCell>
        <mxCell id="_sGpEpvZL02431Neq0mV-2" value="Web UI" style="rounded=1;whiteSpace=wrap;html=1;fontSize=11;fillColor=#FFF2CC;" parent="1" vertex="1">
          <mxGeometry x="240" y="70" width="100" height="40" as="geometry" />
        </mxCell>
        <mxCell id="_sGpEpvZL02431Neq0mV-3" value="Inventory server" style="rounded=1;whiteSpace=wrap;html=1;fontSize=11;fillColor=#FFF2CC;" parent="1" vertex="1">
          <mxGeometry x="240" y="130" width="100" height="40" as="geometry" />
        </mxCell>
        <mxCell id="_sGpEpvZL02431Neq0mV-5" value="Data collector" style="rounded=1;whiteSpace=wrap;html=1;fontSize=11;fillColor=#FFF2CC;" parent="1" vertex="1">
          <mxGeometry x="240" y="450" width="100" height="40" as="geometry" />
        </mxCell>
        <mxCell id="_sGpEpvZL02431Neq0mV-6" value="Portfolio trader" style="rounded=1;whiteSpace=wrap;html=1;fontSize=11;fillColor=#FFF2CC;" parent="1" vertex="1">
          <mxGeometry x="240" y="260" width="100" height="40" as="geometry" />
        </mxCell>
        <mxCell id="_sGpEpvZL02431Neq0mV-7" value="System adapter" style="rounded=1;whiteSpace=wrap;html=1;fontSize=11;fillColor=#FFF2CC;" parent="1" vertex="1">
          <mxGeometry x="240" y="390" width="100" height="40" as="geometry" />
        </mxCell>
        <mxCell id="_sGpEpvZL02431Neq0mV-8" value="Keycloak" style="rounded=1;whiteSpace=wrap;html=1;fontSize=11;fillColor=#E6E6E6;" parent="1" vertex="1">
          <mxGeometry x="240" y="840" width="100" height="40" as="geometry" />
        </mxCell>
        <mxCell id="_sGpEpvZL02431Neq0mV-12" style="edgeStyle=orthogonalEdgeStyle;rounded=0;orthogonalLoop=1;jettySize=auto;html=1;entryX=0;entryY=0.5;entryDx=0;entryDy=0;exitX=1;exitY=0.5;exitDx=0;exitDy=0;" parent="1" source="_sGpEpvZL02431Neq0mV-1" target="_sGpEpvZL02431Neq0mV-6" edge="1">
          <mxGeometry relative="1" as="geometry">
            <Array as="points">
              <mxPoint x="170" y="470" />
              <mxPoint x="170" y="280" />
            </Array>
          </mxGeometry>
        </mxCell>
        <mxCell id="_sGpEpvZL02431Neq0mV-20" value="8445" style="edgeLabel;html=1;align=center;verticalAlign=middle;resizable=0;points=[];fontSize=9;" parent="_sGpEpvZL02431Neq0mV-12" vertex="1" connectable="0">
          <mxGeometry x="0.5308" y="1" relative="1" as="geometry">
            <mxPoint x="48" y="-9" as="offset" />
          </mxGeometry>
        </mxCell>
        <mxCell id="_sGpEpvZL02431Neq0mV-22" value="MySQL" style="shape=cylinder3;whiteSpace=wrap;html=1;boundedLbl=1;backgroundOutline=1;size=6.899993896484375;fontSize=9;fillColor=#D4E1F5;" parent="1" vertex="1">
          <mxGeometry x="270" y="210" width="40" height="30" as="geometry" />
        </mxCell>
        <mxCell id="_sGpEpvZL02431Neq0mV-23" value="MySQL" style="shape=cylinder3;whiteSpace=wrap;html=1;boundedLbl=1;backgroundOutline=1;size=6.899993896484375;fontSize=9;fillColor=#D4E1F5;" parent="1" vertex="1">
          <mxGeometry x="240" y="530" width="40" height="30" as="geometry" />
        </mxCell>
        <mxCell id="_sGpEpvZL02431Neq0mV-24" value="MySQL" style="shape=cylinder3;whiteSpace=wrap;html=1;boundedLbl=1;backgroundOutline=1;size=6.899993896484375;fontSize=9;fillColor=#D4E1F5;" parent="1" vertex="1">
          <mxGeometry x="270" y="340" width="40" height="30" as="geometry" />
        </mxCell>
        <mxCell id="_sGpEpvZL02431Neq0mV-25" value="MySQL" style="shape=cylinder3;whiteSpace=wrap;html=1;boundedLbl=1;backgroundOutline=1;size=6.899993896484375;fontSize=9;fillColor=#D4E1F5;" parent="1" vertex="1">
          <mxGeometry x="270" y="920" width="40" height="30" as="geometry" />
        </mxCell>
        <mxCell id="_sGpEpvZL02431Neq0mV-26" style="edgeStyle=orthogonalEdgeStyle;rounded=0;orthogonalLoop=1;jettySize=auto;html=1;entryX=0.5;entryY=0;entryDx=0;entryDy=0;entryPerimeter=0;" parent="1" source="_sGpEpvZL02431Neq0mV-8" target="_sGpEpvZL02431Neq0mV-25" edge="1">
          <mxGeometry relative="1" as="geometry" />
        </mxCell>
        <mxCell id="_sGpEpvZL02431Neq0mV-27" value="3500" style="edgeLabel;html=1;align=center;verticalAlign=middle;resizable=0;points=[];fontSize=9;" parent="_sGpEpvZL02431Neq0mV-26" vertex="1" connectable="0">
          <mxGeometry x="-0.12" y="2" relative="1" as="geometry">
            <mxPoint x="18" as="offset" />
          </mxGeometry>
        </mxCell>
        <mxCell id="_sGpEpvZL02431Neq0mV-28" style="edgeStyle=orthogonalEdgeStyle;rounded=0;orthogonalLoop=1;jettySize=auto;html=1;entryX=0.5;entryY=0;entryDx=0;entryDy=0;entryPerimeter=0;" parent="1" source="_sGpEpvZL02431Neq0mV-6" target="_sGpEpvZL02431Neq0mV-24" edge="1">
          <mxGeometry relative="1" as="geometry" />
        </mxCell>
        <mxCell id="_sGpEpvZL02431Neq0mV-29" value="3401" style="edgeLabel;html=1;align=center;verticalAlign=middle;resizable=0;points=[];fontSize=9;" parent="_sGpEpvZL02431Neq0mV-28" vertex="1" connectable="0">
          <mxGeometry x="0.08" y="1" relative="1" as="geometry">
            <mxPoint x="19" y="-8" as="offset" />
          </mxGeometry>
        </mxCell>
        <mxCell id="_sGpEpvZL02431Neq0mV-30" style="rounded=0;orthogonalLoop=1;jettySize=auto;html=1;entryX=0.5;entryY=0;entryDx=0;entryDy=0;entryPerimeter=0;edgeStyle=orthogonalEdgeStyle;" parent="1" target="_sGpEpvZL02431Neq0mV-23" edge="1">
          <mxGeometry relative="1" as="geometry">
            <mxPoint x="259" y="490" as="sourcePoint" />
            <mxPoint x="230" y="510" as="targetPoint" />
          </mxGeometry>
        </mxCell>
        <mxCell id="_sGpEpvZL02431Neq0mV-31" value="3402" style="edgeLabel;html=1;align=center;verticalAlign=middle;resizable=0;points=[];fontSize=9;" parent="_sGpEpvZL02431Neq0mV-30" vertex="1" connectable="0">
          <mxGeometry x="0.14" y="-1" relative="1" as="geometry">
            <mxPoint x="-19" y="-9" as="offset" />
          </mxGeometry>
        </mxCell>
        <mxCell id="_sGpEpvZL02431Neq0mV-32" style="edgeStyle=orthogonalEdgeStyle;rounded=0;orthogonalLoop=1;jettySize=auto;html=1;entryX=0.5;entryY=0;entryDx=0;entryDy=0;entryPerimeter=0;" parent="1" source="_sGpEpvZL02431Neq0mV-3" target="_sGpEpvZL02431Neq0mV-22" edge="1">
          <mxGeometry relative="1" as="geometry">
            <mxPoint x="390" y="150" as="targetPoint" />
          </mxGeometry>
        </mxCell>
        <mxCell id="_sGpEpvZL02431Neq0mV-33" value="3400" style="edgeLabel;html=1;align=center;verticalAlign=middle;resizable=0;points=[];fontSize=9;" parent="_sGpEpvZL02431Neq0mV-32" vertex="1" connectable="0">
          <mxGeometry relative="1" as="geometry">
            <mxPoint x="20" as="offset" />
          </mxGeometry>
        </mxCell>
        <mxCell id="_sGpEpvZL02431Neq0mV-35" style="edgeStyle=orthogonalEdgeStyle;rounded=0;orthogonalLoop=1;jettySize=auto;html=1;entryX=0.5;entryY=0;entryDx=0;entryDy=0;" parent="1" source="_sGpEpvZL02431Neq0mV-34" target="_sGpEpvZL02431Neq0mV-1" edge="1">
          <mxGeometry relative="1" as="geometry" />
        </mxCell>
        <mxCell id="_sGpEpvZL02431Neq0mV-36" value="8443" style="edgeLabel;html=1;align=center;verticalAlign=middle;resizable=0;points=[];fontSize=9;" parent="_sGpEpvZL02431Neq0mV-35" vertex="1" connectable="0">
          <mxGeometry x="-0.0104" y="4" relative="1" as="geometry">
            <mxPoint x="15" y="-1" as="offset" />
          </mxGeometry>
        </mxCell>
        <mxCell id="_sGpEpvZL02431Neq0mV-34" value="" style="sketch=0;outlineConnect=0;fontColor=#232F3E;gradientColor=none;fillColor=#232F3D;strokeColor=none;dashed=0;verticalLabelPosition=bottom;verticalAlign=top;align=center;html=1;fontSize=12;fontStyle=0;aspect=fixed;pointerEvents=1;shape=mxgraph.aws4.user;" parent="1" vertex="1">
          <mxGeometry x="75" y="380" width="30" height="30" as="geometry" />
        </mxCell>
        <mxCell id="_sGpEpvZL02431Neq0mV-39" value="TimescaleDB" style="shape=cylinder3;whiteSpace=wrap;html=1;boundedLbl=1;backgroundOutline=1;size=6.899993896484375;fontSize=9;fillColor=#D4E1F5;" parent="1" vertex="1">
          <mxGeometry x="290" y="530" width="60" height="30" as="geometry" />
        </mxCell>
        <mxCell id="_sGpEpvZL02431Neq0mV-41" style="rounded=0;orthogonalLoop=1;jettySize=auto;html=1;edgeStyle=orthogonalEdgeStyle;entryX=0.5;entryY=0;entryDx=0;entryDy=0;entryPerimeter=0;" parent="1" source="_sGpEpvZL02431Neq0mV-5" target="_sGpEpvZL02431Neq0mV-39" edge="1">
          <mxGeometry relative="1" as="geometry">
            <Array as="points">
              <mxPoint x="320" y="500" />
              <mxPoint x="320" y="500" />
            </Array>
            <mxPoint x="400" y="510" as="sourcePoint" />
            <mxPoint x="450" y="580" as="targetPoint" />
          </mxGeometry>
        </mxCell>
        <mxCell id="_sGpEpvZL02431Neq0mV-45" value="3410" style="edgeLabel;html=1;align=center;verticalAlign=middle;resizable=0;points=[];fontSize=9;" parent="_sGpEpvZL02431Neq0mV-41" vertex="1" connectable="0">
          <mxGeometry x="0.0457" relative="1" as="geometry">
            <mxPoint x="20" y="-7" as="offset" />
          </mxGeometry>
        </mxCell>
        <mxCell id="9ivNpmz6lvk3FCHe2IXy-1" value="Rabbit MQ" style="rounded=1;whiteSpace=wrap;html=1;fontSize=11;fillColor=#E6E6E6;" parent="1" vertex="1">
          <mxGeometry x="640" y="120" width="80" height="760" as="geometry" />
        </mxCell>
        <mxCell id="9ivNpmz6lvk3FCHe2IXy-2" value="8450" style="edgeStyle=orthogonalEdgeStyle;rounded=0;orthogonalLoop=1;jettySize=auto;html=1;fontSize=9;exitX=1;exitY=0.5;exitDx=0;exitDy=0;" parent="1" source="_sGpEpvZL02431Neq0mV-3" edge="1">
          <mxGeometry x="-0.8" y="10" relative="1" as="geometry">
            <mxPoint x="530" y="140" as="sourcePoint" />
            <mxPoint x="640" y="150" as="targetPoint" />
            <Array as="points">
              <mxPoint x="640" y="150" />
            </Array>
            <mxPoint as="offset" />
          </mxGeometry>
        </mxCell>
        <mxCell id="9ivNpmz6lvk3FCHe2IXy-4" value="8450" style="edgeStyle=orthogonalEdgeStyle;rounded=0;orthogonalLoop=1;jettySize=auto;html=1;entryX=1;entryY=0.5;entryDx=0;entryDy=0;fontSize=9;exitX=0;exitY=0.211;exitDx=0;exitDy=0;exitPerimeter=0;" parent="1" source="9ivNpmz6lvk3FCHe2IXy-1" target="_sGpEpvZL02431Neq0mV-6" edge="1">
          <mxGeometry x="0.8016" y="-10" relative="1" as="geometry">
            <mxPoint x="609" y="260" as="sourcePoint" />
            <mxPoint x="380" y="490" as="targetPoint" />
            <Array as="points">
              <mxPoint x="609" y="280" />
            </Array>
            <mxPoint as="offset" />
          </mxGeometry>
        </mxCell>
        <mxCell id="9ivNpmz6lvk3FCHe2IXy-5" value="8451" style="edgeLabel;html=1;align=center;verticalAlign=middle;resizable=0;points=[];fontSize=9;" parent="9ivNpmz6lvk3FCHe2IXy-4" vertex="1" connectable="0">
          <mxGeometry relative="1" as="geometry">
            <mxPoint x="206" y="-180" as="offset" />
          </mxGeometry>
        </mxCell>
        <mxCell id="9ivNpmz6lvk3FCHe2IXy-8" value="" style="sketch=0;outlineConnect=0;fontColor=#232F3E;gradientColor=none;fillColor=#232F3D;strokeColor=none;dashed=0;verticalLabelPosition=bottom;verticalAlign=top;align=center;html=1;fontSize=12;fontStyle=0;aspect=fixed;pointerEvents=1;shape=mxgraph.aws4.user;" parent="1" vertex="1">
          <mxGeometry x="665" y="50" width="30" height="30" as="geometry" />
        </mxCell>
        <mxCell id="9ivNpmz6lvk3FCHe2IXy-9" style="edgeStyle=orthogonalEdgeStyle;rounded=0;orthogonalLoop=1;jettySize=auto;html=1;entryX=0.5;entryY=0;entryDx=0;entryDy=0;" parent="1" source="9ivNpmz6lvk3FCHe2IXy-8" target="9ivNpmz6lvk3FCHe2IXy-1" edge="1">
          <mxGeometry relative="1" as="geometry">
            <mxPoint x="680" y="90" as="sourcePoint" />
            <mxPoint x="679.45" y="100" as="targetPoint" />
          </mxGeometry>
        </mxCell>
        <mxCell id="e6Xa3xUERke05eWlV9_L-13" value="" style="edgeStyle=orthogonalEdgeStyle;rounded=0;orthogonalLoop=1;jettySize=auto;html=1;" parent="1" source="e6Xa3xUERke05eWlV9_L-1" edge="1">
          <mxGeometry relative="1" as="geometry">
            <mxPoint x="290" y="660" as="targetPoint" />
          </mxGeometry>
        </mxCell>
        <mxCell id="e6Xa3xUERke05eWlV9_L-1" value="Storage manager" style="rounded=1;whiteSpace=wrap;html=1;fontSize=11;fillColor=#FFF2CC;" parent="1" vertex="1">
          <mxGeometry x="240" y="590.5" width="100" height="40" as="geometry" />
        </mxCell>
        <mxCell id="e6Xa3xUERke05eWlV9_L-2" style="edgeStyle=orthogonalEdgeStyle;rounded=0;orthogonalLoop=1;jettySize=auto;html=1;entryX=0;entryY=0.5;entryDx=0;entryDy=0;exitX=1;exitY=0.5;exitDx=0;exitDy=0;" parent="1" source="_sGpEpvZL02431Neq0mV-1" target="e6Xa3xUERke05eWlV9_L-1" edge="1">
          <mxGeometry relative="1" as="geometry">
            <mxPoint x="520" y="260" as="sourcePoint" />
            <mxPoint x="580" y="350" as="targetPoint" />
            <Array as="points">
              <mxPoint x="170" y="470" />
              <mxPoint x="170" y="611" />
            </Array>
          </mxGeometry>
        </mxCell>
        <mxCell id="e6Xa3xUERke05eWlV9_L-3" value="8452" style="edgeLabel;html=1;align=center;verticalAlign=middle;resizable=0;points=[];fontSize=9;" parent="e6Xa3xUERke05eWlV9_L-2" vertex="1" connectable="0">
          <mxGeometry x="0.5824" y="-3" relative="1" as="geometry">
            <mxPoint x="30" y="-13" as="offset" />
          </mxGeometry>
        </mxCell>
        <mxCell id="e6Xa3xUERke05eWlV9_L-4" value="8450" style="edgeStyle=orthogonalEdgeStyle;rounded=0;orthogonalLoop=1;jettySize=auto;html=1;entryX=1;entryY=0.5;entryDx=0;entryDy=0;fontSize=9;" parent="1" target="e6Xa3xUERke05eWlV9_L-1" edge="1">
          <mxGeometry x="0.8001" y="-10" relative="1" as="geometry">
            <mxPoint x="640" y="611" as="sourcePoint" />
            <mxPoint x="629.75" y="490" as="targetPoint" />
            <Array as="points">
              <mxPoint x="640" y="611" />
              <mxPoint x="490" y="611" />
            </Array>
            <mxPoint as="offset" />
          </mxGeometry>
        </mxCell>
        <mxCell id="e6Xa3xUERke05eWlV9_L-6" value="8450" style="edgeStyle=orthogonalEdgeStyle;rounded=0;orthogonalLoop=1;jettySize=auto;html=1;fontSize=9;exitX=1;exitY=0.5;exitDx=0;exitDy=0;" parent="1" source="_sGpEpvZL02431Neq0mV-7" target="9ivNpmz6lvk3FCHe2IXy-1" edge="1">
          <mxGeometry x="-0.8001" y="10" relative="1" as="geometry">
            <mxPoint x="519.75" y="350" as="sourcePoint" />
            <mxPoint x="610" y="410" as="targetPoint" />
            <mxPoint as="offset" />
            <Array as="points">
              <mxPoint x="560" y="410" />
              <mxPoint x="560" y="410" />
            </Array>
          </mxGeometry>
        </mxCell>
        <mxCell id="e6Xa3xUERke05eWlV9_L-8" value="8450" style="edgeStyle=orthogonalEdgeStyle;rounded=0;orthogonalLoop=1;jettySize=auto;html=1;entryX=1;entryY=0.5;entryDx=0;entryDy=0;fontSize=9;startArrow=classic;startFill=1;" parent="1" target="_sGpEpvZL02431Neq0mV-5" edge="1">
          <mxGeometry x="0.8012" y="-10" relative="1" as="geometry">
            <mxPoint x="640" y="470" as="sourcePoint" />
            <mxPoint x="370" y="420" as="targetPoint" />
            <mxPoint as="offset" />
            <Array as="points">
              <mxPoint x="640" y="470" />
            </Array>
          </mxGeometry>
        </mxCell>
        <mxCell id="e6Xa3xUERke05eWlV9_L-18" value="&lt;font style=&quot;font-size: 11px;&quot;&gt;Storage&lt;/font&gt;" style="text;strokeColor=none;fillColor=none;html=1;fontSize=24;fontStyle=0;verticalAlign=middle;align=center;" parent="1" vertex="1">
          <mxGeometry x="250" y="680" width="80" height="20" as="geometry" />
        </mxCell>
        <mxCell id="e6Xa3xUERke05eWlV9_L-19" value="&lt;font&gt;Data product, broker product, datafile upload&lt;/font&gt;" style="text;strokeColor=none;fillColor=none;html=1;fontSize=9;fontStyle=2;verticalAlign=middle;align=center;" parent="1" vertex="1">
          <mxGeometry x="400" y="470" width="230" height="20" as="geometry" />
        </mxCell>
        <mxCell id="e6Xa3xUERke05eWlV9_L-21" value="&lt;font&gt;Datafile upload&lt;/font&gt;" style="text;strokeColor=none;fillColor=none;html=1;fontSize=9;fontStyle=1;verticalAlign=middle;align=center;" parent="1" vertex="1">
          <mxGeometry x="400" y="450" width="230" height="20" as="geometry" />
        </mxCell>
        <mxCell id="e6Xa3xUERke05eWlV9_L-22" value="&lt;font&gt;Data product, broker product, trading system, trade&lt;/font&gt;" style="text;strokeColor=none;fillColor=none;html=1;fontSize=9;fontStyle=1;verticalAlign=middle;align=center;" parent="1" vertex="1">
          <mxGeometry x="400" y="130" width="230" height="20" as="geometry" />
        </mxCell>
        <mxCell id="e6Xa3xUERke05eWlV9_L-23" value="&lt;font&gt;Data product, broker product, trading system, trade&lt;/font&gt;" style="text;strokeColor=none;fillColor=none;html=1;fontSize=9;fontStyle=2;verticalAlign=middle;align=center;" parent="1" vertex="1">
          <mxGeometry x="400" y="280" width="230" height="20" as="geometry" />
        </mxCell>
        <mxCell id="e6Xa3xUERke05eWlV9_L-24" value="&lt;font&gt;Trading system&lt;/font&gt;" style="text;strokeColor=none;fillColor=none;html=1;fontSize=9;fontStyle=2;verticalAlign=middle;align=center;" parent="1" vertex="1">
          <mxGeometry x="400" y="610.5" width="230" height="20" as="geometry" />
        </mxCell>
        <mxCell id="oLsfEnohRu9DNw6726rV-1" value="" style="html=1;verticalLabelPosition=bottom;align=center;labelBackgroundColor=#ffffff;verticalAlign=top;strokeWidth=1;shadow=0;dashed=0;shape=mxgraph.ios7.icons.data;fillStyle=solid;fillColor=light-dark(#dae8fc, #005a68);" parent="1" vertex="1">
          <mxGeometry x="260" y="660" width="60" height="29.1" as="geometry" />
        </mxCell>
        <mxCell id="cy9EhG2jdux1Q5BCdfHV-3" value="" style="edgeStyle=orthogonalEdgeStyle;rounded=0;orthogonalLoop=1;jettySize=auto;html=1;" edge="1" parent="1" source="cy9EhG2jdux1Q5BCdfHV-1" target="cy9EhG2jdux1Q5BCdfHV-2">
          <mxGeometry relative="1" as="geometry" />
        </mxCell>
        <mxCell id="cy9EhG2jdux1Q5BCdfHV-4" value="3403" style="edgeLabel;html=1;align=center;verticalAlign=middle;resizable=0;points=[];fontSize=9;" vertex="1" connectable="0" parent="cy9EhG2jdux1Q5BCdfHV-3">
          <mxGeometry x="-0.35" relative="1" as="geometry">
            <mxPoint x="20" y="7" as="offset" />
          </mxGeometry>
        </mxCell>
        <mxCell id="cy9EhG2jdux1Q5BCdfHV-1" value="Event store" style="rounded=1;whiteSpace=wrap;html=1;fontSize=11;fillColor=#FFF2CC;" vertex="1" parent="1">
          <mxGeometry x="240" y="720" width="100" height="40" as="geometry" />
        </mxCell>
        <mxCell id="cy9EhG2jdux1Q5BCdfHV-2" value="MySQL" style="shape=cylinder3;whiteSpace=wrap;html=1;boundedLbl=1;backgroundOutline=1;size=6.899993896484375;fontSize=9;fillColor=#D4E1F5;" vertex="1" parent="1">
          <mxGeometry x="270" y="800" width="40" height="30" as="geometry" />
        </mxCell>
        <mxCell id="cy9EhG2jdux1Q5BCdfHV-7" value="8450" style="edgeStyle=orthogonalEdgeStyle;rounded=0;orthogonalLoop=1;jettySize=auto;html=1;entryX=1;entryY=0.5;entryDx=0;entryDy=0;fontSize=9;" edge="1" parent="1">
          <mxGeometry x="0.8001" y="-10" relative="1" as="geometry">
            <mxPoint x="640" y="739.75" as="sourcePoint" />
            <mxPoint x="340" y="739.75" as="targetPoint" />
            <Array as="points">
              <mxPoint x="640" y="739.75" />
              <mxPoint x="490" y="739.75" />
            </Array>
            <mxPoint as="offset" />
          </mxGeometry>
        </mxCell>
        <mxCell id="cy9EhG2jdux1Q5BCdfHV-9" value="Event" style="text;strokeColor=none;fillColor=none;html=1;fontSize=9;fontStyle=2;verticalAlign=middle;align=center;" vertex="1" parent="1">
          <mxGeometry x="410" y="740" width="230" height="20" as="geometry" />
        </mxCell>
      </root>
    </mxGraphModel>
  </diagram>
</mxfile>
